<svg width="1322" height="283" viewBox="0 0 1322 283" fill="none" xmlns="http://www.w3.org/2000/svg">
<path d="M103.17 167.302H57.759V251.352C57.759 271.268 61.3441 275.65 81.6593 275.65H103.568V278.837H-3.17847e-05V275.65H7.96673C28.282 275.65 31.867 271.268 31.867 251.352V27.4855C31.867 7.56856 28.282 3.58518 7.96673 3.58518H-3.17847e-05V0.000136645H103.17C174.87 0.000136645 215.501 27.4855 215.501 83.6512C215.501 139.817 174.87 167.302 103.17 167.302ZM95.9995 4.78021H57.759V162.522H95.9995C171.285 162.522 188.016 125.875 188.016 83.6512C188.016 41.8257 171.285 4.78021 95.9995 4.78021ZM425.845 198.771L427.837 200.364C415.489 222.273 380.036 281.227 313.116 281.227C254.162 281.227 213.133 246.572 211.938 191.999C210.743 132.647 258.543 83.2528 315.107 83.2528C358.526 83.2528 392.385 111.933 392.385 155.352H236.236C235.041 164.514 234.643 174.074 235.44 184.431C240.618 239.8 278.062 266.09 320.286 268.878C383.621 272.862 415.09 218.289 425.845 198.771ZM308.336 87.6346C272.883 87.2362 244.203 112.332 237.033 152.165H367.29C368.883 119.502 351.754 88.0329 308.336 87.6346ZM531.579 84.8462C543.529 86.4395 549.903 90.4229 547.513 99.5847C545.919 107.153 535.563 109.941 523.214 104.365C504.492 95.203 488.16 88.8296 471.43 104.763C456.293 118.705 449.522 146.987 449.522 166.107V251.352C449.522 271.268 453.107 275.65 473.422 275.65H495.33V278.837H392.161V275.65H400.128C420.045 275.65 424.028 271.268 424.028 251.352V113.925C424.028 93.6096 420.045 89.6262 400.128 89.6262H392.161V86.0412H449.522V142.605C453.505 128.265 459.878 113.527 468.642 101.576C480.99 85.2445 502.501 81.2611 531.579 84.8462ZM616.07 165.311C646.743 178.456 696.535 191.202 692.153 230.638C688.17 265.692 654.311 282.422 616.867 281.227C574.245 280.032 556.32 257.327 545.963 258.92C540.386 260.115 539.191 268.082 539.191 276.447C539.191 280.032 539.191 282.422 539.191 282.422H536.403V202.356H539.191C539.191 202.356 539.191 213.111 539.191 217.493C539.191 257.327 583.407 275.65 612.087 276.845C642.759 278.439 672.635 266.488 674.228 240.995C675.821 216.298 649.929 205.941 611.689 191.202C568.668 174.472 542.776 157.742 548.353 123.883C554.328 88.8296 600.535 82.8545 613.282 83.2528C653.514 84.4478 663.473 100.381 671.041 100.78C675.821 100.78 676.618 95.203 676.618 89.6262C676.618 84.8462 676.618 82.0578 676.618 82.0578H679.008V162.124H676.618C676.618 162.124 676.618 153.36 676.618 146.987C676.618 110.34 660.286 89.2279 612.884 87.6346C591.772 86.8379 564.287 98.788 564.685 123.485C564.685 145.792 589.382 153.759 616.07 165.311ZM800.467 83.2528C861.811 83.2528 904.433 124.68 904.433 182.439C904.433 240.198 861.811 281.227 800.467 281.227C738.724 281.227 696.501 240.198 696.501 182.439C696.501 124.68 738.724 83.2528 800.467 83.2528ZM800.467 277.642C849.861 277.642 878.94 239.401 878.94 182.439C878.94 125.477 849.861 87.2362 800.467 87.2362C751.073 87.2362 721.994 125.477 721.994 182.439C721.994 239.401 751.073 277.642 800.467 277.642ZM1120.93 275.65H1128.9V278.837H1039.67V275.65H1047.64C1067.55 275.65 1071.54 271.268 1071.54 251.352C1071.54 221.476 1071.54 175.269 1071.54 153.36C1071.54 113.527 1050.03 88.4312 1016.96 88.4312C977.13 88.4312 950.441 125.078 950.441 154.954V251.352C950.441 271.268 954.026 275.65 973.943 275.65H981.91V278.837H892.682V275.65H900.649C920.964 275.65 924.549 271.268 924.549 251.352V113.925C924.549 93.6096 920.964 89.6262 900.649 89.6262H892.682V86.0412H950.441V132.248C959.205 106.755 985.893 83.2528 1021.35 83.2528C1067.15 83.2528 1097.03 109.941 1097.03 158.539C1097.03 187.219 1097.03 251.352 1097.03 251.352C1097.03 271.268 1100.61 275.65 1120.93 275.65ZM1319.81 256.53L1321.8 258.123C1315.43 267.683 1301.89 281.227 1283.96 281.227C1264.44 281.227 1251.7 270.073 1251.7 246.572C1251.7 243.385 1251.7 219.883 1251.7 216.298C1247.71 237.808 1228.2 278.837 1184.38 281.227C1152.91 282.82 1116.66 268.48 1115.47 233.825C1113.87 191.999 1151.32 181.244 1196.33 173.676C1234.17 167.302 1246.92 151.767 1251.7 143.004C1251.7 95.9997 1230.59 86.4395 1204.69 86.4395C1183.58 86.4395 1174.02 103.568 1161.27 115.917C1151.32 125.477 1143.35 125.477 1138.57 119.502C1134.59 114.722 1136.98 107.153 1144.15 102.373C1160.88 92.0163 1184.38 83.2528 1205.49 83.2528C1250.9 83.2528 1277.19 105.56 1277.19 156.547V248.962C1277.19 269.277 1281.57 275.65 1289.54 276.447C1299.1 277.642 1312.24 268.48 1319.81 256.53ZM1251.7 197.178C1251.7 179.252 1251.7 160.53 1251.7 147.784C1243.33 157.344 1234.17 169.294 1191.55 177.659C1167.25 182.837 1136.58 195.186 1138.57 232.231C1140.56 263.7 1166.45 277.642 1195.13 274.854C1227.8 271.667 1251.7 232.63 1251.7 197.178Z" fill="#262626"/>
</svg>
